<?xml version="1.0" encoding="UTF-8"?>
<!DOCTYPE svg PUBLIC "-//W3C//DTD SVG 1.1//EN" "http://www.w3.org/Graphics/SVG/1.1/DTD/svg11.dtd">
<!-- Creator: CorelDRAW -->
<svg xmlns="http://www.w3.org/2000/svg" xml:space="preserve" width="2480px" height="3508px" version="1.1" style="shape-rendering:geometricPrecision; text-rendering:geometricPrecision; image-rendering:optimizeQuality; fill-rule:evenodd; clip-rule:evenodd"
viewBox="0 0 2480 3507.43"
 xmlns:xlink="http://www.w3.org/1999/xlink"
 xmlns:xodm="http://www.corel.com/coreldraw/odm/2003">
 <defs>
  <style type="text/css">
   <![CDATA[
    .fil0 {fill:#2B134B;fill-rule:nonzero}
   ]]>
  </style>
 </defs>
 <g id="Camada_x0020_1">
  <metadata id="CorelCorpID_0Corel-Layer"/>
  <path class="fil0" d="M2039.9 1760.84l0 22.9c-0.98,16.29 -2,32.56 -3.06,48.81 -8.59,131.06 -47.16,251.14 -115.74,360.23 -45.28,72.06 -98.66,134.79 -160.13,188.2 -73.31,63.66 -158.91,112.88 -256.82,147.67 -11.06,3.91 -20.85,5.63 -29.37,5.15 -15.56,-0.89 -26.35,-8.42 -32.37,-22.59 -2.79,-6.58 -4.07,-20.75 -3.84,-42.49 0.64,-66.56 0.72,-132.36 0.22,-197.42 -0.44,-54.43 -12.44,-106.01 -52.15,-143.2 -1.59,-1.45 -1.3,-2.29 0.84,-2.5 36.98,-3.66 72.59,-10.03 106.83,-19.09 31.16,-8.22 63.39,-21.77 96.68,-40.65 41.97,-23.77 74.59,-53.51 97.86,-89.24 24.47,-37.62 41.27,-84.33 50.15,-128.07 8.75,-43.14 12.33,-87.1 10.75,-131.86 -2.71,-75.97 -29.37,-141.8 -79.99,-197.48 -1.29,-1.41 -1.59,-3.02 -0.88,-4.81 26.63,-67.93 18.34,-138.58 -8.43,-207.75 -0.45,-1.2 -1.51,-2.15 -2.82,-2.49 -26.74,-6.17 -55.4,1.89 -81.33,11.7 -47.08,17.79 -91.62,40.99 -133.64,69.59 -1.49,1 -3.36,1.33 -5.13,0.88 -131.1,-35.19 -262.98,-35.18 -395.63,0.02 -1.54,0.44 -3.31,0.15 -4.74,-0.82 -25.73,-18.11 -51.53,-33.1 -77.41,-44.95 -33.46,-15.31 -71.24,-32.47 -106.89,-37.47 -10.12,-1.41 -20.64,-1.08 -31.56,1.01 -1.23,0.22 -2.06,0.92 -2.5,2.09 -26.68,68.77 -34.12,140.07 -7.46,208.78 0.5,1.32 0.2,2.8 -0.76,3.83 -54.72,59.54 -81.65,132.14 -80.8,217.77 0.3,28.79 2.35,56.51 6.16,83.18 6.41,44.97 19.34,87.44 38.78,127.39 21.21,43.59 51.89,78.64 91.7,105.2 39.48,26.35 81.51,45.08 126.11,56.18 32.56,8.09 65.61,13.78 99.14,17.1 0.79,0.08 1.38,0.73 1.38,1.52 0,0.41 -0.17,0.81 -0.47,1.1 -22.59,21.43 -38.96,51.93 -45.12,83.55 -1.35,7.06 -2.63,13.67 -3.84,19.81 -0.23,1.15 -0.88,1.96 -1.94,2.44 -34.24,15.62 -69.86,20.9 -107.83,20.03 -44.68,-1.03 -84.99,-30.81 -110.45,-67.68 -10.63,-15.41 -19.41,-31.87 -32.03,-46.03 -18.39,-20.6 -41.31,-36.5 -68.74,-47.71 -16.84,-6.87 -36.72,-9.5 -54.71,-6.34 -8.25,1.44 -20.16,6.06 -13.91,17.25 7.33,13.1 17.83,23.56 31.5,31.37 12.9,7.37 24.37,16.65 33.81,27.87 16.97,20.1 30.58,40.89 40.8,62.37 9.19,19.24 15.78,40.18 27.47,57.71 22.37,33.49 61.68,56.02 102.2,63.02 53.83,9.27 103.51,9.06 149.05,-0.62 1.48,-0.32 2.22,0.29 2.22,1.81 0.14,45.62 0.5,92.43 1.06,140.45 0.31,25.06 -10.41,44.71 -37.72,46.34 -6.66,0.37 -11.96,-0.08 -15.9,-1.35 -121.9,-39.81 -227.08,-104.81 -315.52,-195 -59.52,-60.7 -108.57,-128.33 -147.17,-202.88 -48.08,-92.89 -75.66,-193.34 -82.74,-301.37 -1.06,-16.46 -2.05,-32.96 -2.97,-49.5l0 -23.4c0.75,-11.58 1.44,-23.17 2.06,-34.78 6.23,-116.59 36.16,-225.17 89.77,-325.74 9.79,-18.35 20.33,-36.4 31.63,-54.14 89.67,-140.86 212.4,-244.63 368.2,-311.31 62.49,-26.75 129.59,-44.72 201.28,-53.93 138.49,-17.81 284.81,-1.34 412.64,52.9 148.84,63.16 267.65,159.89 356.46,290.18 88.88,130.4 134.8,276.15 137.76,437.26z"/>
 </g>
</svg>
